G04 #@! TF.FileFunction,Paste,Bot*
%FSLAX46Y46*%
G04 Gerber Fmt 4.6, Leading zero omitted, Abs format (unit mm)*
G04 Created by KiCad (PCBNEW 4.0.6) date 11/10/17 17:18:38*
%MOMM*%
%LPD*%
G01*
G04 APERTURE LIST*
%ADD10C,0.100000*%
%ADD11R,1.280000X1.524000*%
%ADD12R,1.400000X0.780000*%
%ADD13R,0.750000X1.200000*%
G04 APERTURE END LIST*
D10*
D11*
X134490000Y-63780000D03*
X137030000Y-63780000D03*
X134490000Y-70480000D03*
X137030000Y-70480000D03*
D12*
X138200000Y-65860000D03*
X138200000Y-67130000D03*
X138200000Y-68400000D03*
X133320000Y-68400000D03*
X133320000Y-67130000D03*
X133320000Y-65860000D03*
D10*
G36*
X138667047Y-104743184D02*
X138136717Y-104212854D01*
X138985245Y-103364326D01*
X139515575Y-103894656D01*
X138667047Y-104743184D01*
X138667047Y-104743184D01*
G37*
G36*
X140010549Y-103399682D02*
X139480219Y-102869352D01*
X140328747Y-102020824D01*
X140859077Y-102551154D01*
X140010549Y-103399682D01*
X140010549Y-103399682D01*
G37*
G36*
X146374510Y-104071433D02*
X145844180Y-104601763D01*
X144995652Y-103753235D01*
X145525982Y-103222905D01*
X146374510Y-104071433D01*
X146374510Y-104071433D01*
G37*
G36*
X145031008Y-102727931D02*
X144500678Y-103258261D01*
X143652150Y-102409733D01*
X144182480Y-101879403D01*
X145031008Y-102727931D01*
X145031008Y-102727931D01*
G37*
G36*
X138278138Y-97035721D02*
X138808468Y-96505391D01*
X139656996Y-97353919D01*
X139126666Y-97884249D01*
X138278138Y-97035721D01*
X138278138Y-97035721D01*
G37*
G36*
X139621640Y-98379223D02*
X140151970Y-97848893D01*
X141000498Y-98697421D01*
X140470168Y-99227751D01*
X139621640Y-98379223D01*
X139621640Y-98379223D01*
G37*
D13*
X96230000Y-87450000D03*
X96230000Y-89350000D03*
M02*
