G04 #@! TF.FileFunction,Other,User*
%FSLAX46Y46*%
G04 Gerber Fmt 4.6, Leading zero omitted, Abs format (unit mm)*
G04 Created by KiCad (PCBNEW 4.0.6) date 11/10/17 17:18:38*
%MOMM*%
%LPD*%
G01*
G04 APERTURE LIST*
%ADD10C,0.100000*%
%ADD11C,0.300000*%
%ADD12C,0.050000*%
%ADD13C,0.150000*%
G04 APERTURE END LIST*
D10*
D11*
X75060001Y-114487143D02*
X76202858Y-114487143D01*
X75631429Y-115058571D02*
X75631429Y-113915714D01*
X76774287Y-113558571D02*
X77702858Y-113558571D01*
X77202858Y-114130000D01*
X77417144Y-114130000D01*
X77560001Y-114201429D01*
X77631430Y-114272857D01*
X77702858Y-114415714D01*
X77702858Y-114772857D01*
X77631430Y-114915714D01*
X77560001Y-114987143D01*
X77417144Y-115058571D01*
X76988572Y-115058571D01*
X76845715Y-114987143D01*
X76774287Y-114915714D01*
X78345715Y-114915714D02*
X78417143Y-114987143D01*
X78345715Y-115058571D01*
X78274286Y-114987143D01*
X78345715Y-114915714D01*
X78345715Y-115058571D01*
X78917144Y-113558571D02*
X79845715Y-113558571D01*
X79345715Y-114130000D01*
X79560001Y-114130000D01*
X79702858Y-114201429D01*
X79774287Y-114272857D01*
X79845715Y-114415714D01*
X79845715Y-114772857D01*
X79774287Y-114915714D01*
X79702858Y-114987143D01*
X79560001Y-115058571D01*
X79131429Y-115058571D01*
X78988572Y-114987143D01*
X78917144Y-114915714D01*
X80274286Y-113558571D02*
X80774286Y-115058571D01*
X81274286Y-113558571D01*
X122722858Y-130307143D02*
X123865715Y-130307143D01*
X123294286Y-130878571D02*
X123294286Y-129735714D01*
X124437144Y-129378571D02*
X125365715Y-129378571D01*
X124865715Y-129950000D01*
X125080001Y-129950000D01*
X125222858Y-130021429D01*
X125294287Y-130092857D01*
X125365715Y-130235714D01*
X125365715Y-130592857D01*
X125294287Y-130735714D01*
X125222858Y-130807143D01*
X125080001Y-130878571D01*
X124651429Y-130878571D01*
X124508572Y-130807143D01*
X124437144Y-130735714D01*
X126008572Y-130735714D02*
X126080000Y-130807143D01*
X126008572Y-130878571D01*
X125937143Y-130807143D01*
X126008572Y-130735714D01*
X126008572Y-130878571D01*
X126580001Y-129378571D02*
X127508572Y-129378571D01*
X127008572Y-129950000D01*
X127222858Y-129950000D01*
X127365715Y-130021429D01*
X127437144Y-130092857D01*
X127508572Y-130235714D01*
X127508572Y-130592857D01*
X127437144Y-130735714D01*
X127365715Y-130807143D01*
X127222858Y-130878571D01*
X126794286Y-130878571D01*
X126651429Y-130807143D01*
X126580001Y-130735714D01*
X127937143Y-129378571D02*
X128437143Y-130878571D01*
X128937143Y-129378571D01*
X131080000Y-130092857D02*
X130580000Y-130092857D01*
X130580000Y-130878571D02*
X130580000Y-129378571D01*
X131294286Y-129378571D01*
X131865714Y-130878571D02*
X131865714Y-129378571D01*
X132437142Y-129378571D01*
X132580000Y-129450000D01*
X132651428Y-129521429D01*
X132722857Y-129664286D01*
X132722857Y-129878571D01*
X132651428Y-130021429D01*
X132580000Y-130092857D01*
X132437142Y-130164286D01*
X131865714Y-130164286D01*
X134151428Y-129450000D02*
X134008571Y-129378571D01*
X133794285Y-129378571D01*
X133580000Y-129450000D01*
X133437142Y-129592857D01*
X133365714Y-129735714D01*
X133294285Y-130021429D01*
X133294285Y-130235714D01*
X133365714Y-130521429D01*
X133437142Y-130664286D01*
X133580000Y-130807143D01*
X133794285Y-130878571D01*
X133937142Y-130878571D01*
X134151428Y-130807143D01*
X134222857Y-130735714D01*
X134222857Y-130235714D01*
X133937142Y-130235714D01*
X134794285Y-130450000D02*
X135508571Y-130450000D01*
X134651428Y-130878571D02*
X135151428Y-129378571D01*
X135651428Y-130878571D01*
X116720001Y-110407143D02*
X117862858Y-110407143D01*
X117291429Y-110978571D02*
X117291429Y-109835714D01*
X119362858Y-110978571D02*
X118505715Y-110978571D01*
X118934287Y-110978571D02*
X118934287Y-109478571D01*
X118791430Y-109692857D01*
X118648572Y-109835714D01*
X118505715Y-109907143D01*
X120005715Y-110835714D02*
X120077143Y-110907143D01*
X120005715Y-110978571D01*
X119934286Y-110907143D01*
X120005715Y-110835714D01*
X120005715Y-110978571D01*
X120648572Y-109621429D02*
X120720001Y-109550000D01*
X120862858Y-109478571D01*
X121220001Y-109478571D01*
X121362858Y-109550000D01*
X121434287Y-109621429D01*
X121505715Y-109764286D01*
X121505715Y-109907143D01*
X121434287Y-110121429D01*
X120577144Y-110978571D01*
X121505715Y-110978571D01*
X121934286Y-109478571D02*
X122434286Y-110978571D01*
X122934286Y-109478571D01*
X128928573Y-36058571D02*
X128071430Y-36058571D01*
X128500002Y-36058571D02*
X128500002Y-34558571D01*
X128357145Y-34772857D01*
X128214287Y-34915714D01*
X128071430Y-34987143D01*
X129428573Y-34558571D02*
X130357144Y-34558571D01*
X129857144Y-35130000D01*
X130071430Y-35130000D01*
X130214287Y-35201429D01*
X130285716Y-35272857D01*
X130357144Y-35415714D01*
X130357144Y-35772857D01*
X130285716Y-35915714D01*
X130214287Y-35987143D01*
X130071430Y-36058571D01*
X129642858Y-36058571D01*
X129500001Y-35987143D01*
X129428573Y-35915714D01*
X131285715Y-34558571D02*
X131428572Y-34558571D01*
X131571429Y-34630000D01*
X131642858Y-34701429D01*
X131714287Y-34844286D01*
X131785715Y-35130000D01*
X131785715Y-35487143D01*
X131714287Y-35772857D01*
X131642858Y-35915714D01*
X131571429Y-35987143D01*
X131428572Y-36058571D01*
X131285715Y-36058571D01*
X131142858Y-35987143D01*
X131071429Y-35915714D01*
X131000001Y-35772857D01*
X130928572Y-35487143D01*
X130928572Y-35130000D01*
X131000001Y-34844286D01*
X131071429Y-34701429D01*
X131142858Y-34630000D01*
X131285715Y-34558571D01*
X132428572Y-35915714D02*
X132500000Y-35987143D01*
X132428572Y-36058571D01*
X132357143Y-35987143D01*
X132428572Y-35915714D01*
X132428572Y-36058571D01*
X133428572Y-34558571D02*
X133571429Y-34558571D01*
X133714286Y-34630000D01*
X133785715Y-34701429D01*
X133857144Y-34844286D01*
X133928572Y-35130000D01*
X133928572Y-35487143D01*
X133857144Y-35772857D01*
X133785715Y-35915714D01*
X133714286Y-35987143D01*
X133571429Y-36058571D01*
X133428572Y-36058571D01*
X133285715Y-35987143D01*
X133214286Y-35915714D01*
X133142858Y-35772857D01*
X133071429Y-35487143D01*
X133071429Y-35130000D01*
X133142858Y-34844286D01*
X133214286Y-34701429D01*
X133285715Y-34630000D01*
X133428572Y-34558571D01*
X134857143Y-34558571D02*
X135000000Y-34558571D01*
X135142857Y-34630000D01*
X135214286Y-34701429D01*
X135285715Y-34844286D01*
X135357143Y-35130000D01*
X135357143Y-35487143D01*
X135285715Y-35772857D01*
X135214286Y-35915714D01*
X135142857Y-35987143D01*
X135000000Y-36058571D01*
X134857143Y-36058571D01*
X134714286Y-35987143D01*
X134642857Y-35915714D01*
X134571429Y-35772857D01*
X134500000Y-35487143D01*
X134500000Y-35130000D01*
X134571429Y-34844286D01*
X134642857Y-34701429D01*
X134714286Y-34630000D01*
X134857143Y-34558571D01*
X136285714Y-34558571D02*
X136428571Y-34558571D01*
X136571428Y-34630000D01*
X136642857Y-34701429D01*
X136714286Y-34844286D01*
X136785714Y-35130000D01*
X136785714Y-35487143D01*
X136714286Y-35772857D01*
X136642857Y-35915714D01*
X136571428Y-35987143D01*
X136428571Y-36058571D01*
X136285714Y-36058571D01*
X136142857Y-35987143D01*
X136071428Y-35915714D01*
X136000000Y-35772857D01*
X135928571Y-35487143D01*
X135928571Y-35130000D01*
X136000000Y-34844286D01*
X136071428Y-34701429D01*
X136142857Y-34630000D01*
X136285714Y-34558571D01*
X138571428Y-36058571D02*
X138571428Y-35058571D01*
X138571428Y-35201429D02*
X138642856Y-35130000D01*
X138785714Y-35058571D01*
X138999999Y-35058571D01*
X139142856Y-35130000D01*
X139214285Y-35272857D01*
X139214285Y-36058571D01*
X139214285Y-35272857D02*
X139285714Y-35130000D01*
X139428571Y-35058571D01*
X139642856Y-35058571D01*
X139785714Y-35130000D01*
X139857142Y-35272857D01*
X139857142Y-36058571D01*
X140571428Y-36058571D02*
X140571428Y-35058571D01*
X140571428Y-35201429D02*
X140642856Y-35130000D01*
X140785714Y-35058571D01*
X140999999Y-35058571D01*
X141142856Y-35130000D01*
X141214285Y-35272857D01*
X141214285Y-36058571D01*
X141214285Y-35272857D02*
X141285714Y-35130000D01*
X141428571Y-35058571D01*
X141642856Y-35058571D01*
X141785714Y-35130000D01*
X141857142Y-35272857D01*
X141857142Y-36058571D01*
X70000000Y-36730000D02*
X200000000Y-36730000D01*
X70000000Y-56000000D02*
X70000000Y-34030000D01*
X200000000Y-56000000D02*
X200000000Y-34030000D01*
X200000000Y-36730000D02*
X198873496Y-37316421D01*
X200000000Y-36730000D02*
X198873496Y-36143579D01*
X70000000Y-36730000D02*
X71126504Y-37316421D01*
X70000000Y-36730000D02*
X71126504Y-36143579D01*
X44971429Y-94928572D02*
X44971429Y-95214287D01*
X45042857Y-95357144D01*
X45114286Y-95428572D01*
X45328571Y-95571430D01*
X45614286Y-95642858D01*
X46185714Y-95642858D01*
X46328571Y-95571430D01*
X46400000Y-95500001D01*
X46471429Y-95357144D01*
X46471429Y-95071430D01*
X46400000Y-94928572D01*
X46328571Y-94857144D01*
X46185714Y-94785715D01*
X45828571Y-94785715D01*
X45685714Y-94857144D01*
X45614286Y-94928572D01*
X45542857Y-95071430D01*
X45542857Y-95357144D01*
X45614286Y-95500001D01*
X45685714Y-95571430D01*
X45828571Y-95642858D01*
X46471429Y-96571429D02*
X46471429Y-96714286D01*
X46400000Y-96857143D01*
X46328571Y-96928572D01*
X46185714Y-97000001D01*
X45900000Y-97071429D01*
X45542857Y-97071429D01*
X45257143Y-97000001D01*
X45114286Y-96928572D01*
X45042857Y-96857143D01*
X44971429Y-96714286D01*
X44971429Y-96571429D01*
X45042857Y-96428572D01*
X45114286Y-96357143D01*
X45257143Y-96285715D01*
X45542857Y-96214286D01*
X45900000Y-96214286D01*
X46185714Y-96285715D01*
X46328571Y-96357143D01*
X46400000Y-96428572D01*
X46471429Y-96571429D01*
X45114286Y-97714286D02*
X45042857Y-97785714D01*
X44971429Y-97714286D01*
X45042857Y-97642857D01*
X45114286Y-97714286D01*
X44971429Y-97714286D01*
X46471429Y-98714286D02*
X46471429Y-98857143D01*
X46400000Y-99000000D01*
X46328571Y-99071429D01*
X46185714Y-99142858D01*
X45900000Y-99214286D01*
X45542857Y-99214286D01*
X45257143Y-99142858D01*
X45114286Y-99071429D01*
X45042857Y-99000000D01*
X44971429Y-98857143D01*
X44971429Y-98714286D01*
X45042857Y-98571429D01*
X45114286Y-98500000D01*
X45257143Y-98428572D01*
X45542857Y-98357143D01*
X45900000Y-98357143D01*
X46185714Y-98428572D01*
X46328571Y-98500000D01*
X46400000Y-98571429D01*
X46471429Y-98714286D01*
X46471429Y-100142857D02*
X46471429Y-100285714D01*
X46400000Y-100428571D01*
X46328571Y-100500000D01*
X46185714Y-100571429D01*
X45900000Y-100642857D01*
X45542857Y-100642857D01*
X45257143Y-100571429D01*
X45114286Y-100500000D01*
X45042857Y-100428571D01*
X44971429Y-100285714D01*
X44971429Y-100142857D01*
X45042857Y-100000000D01*
X45114286Y-99928571D01*
X45257143Y-99857143D01*
X45542857Y-99785714D01*
X45900000Y-99785714D01*
X46185714Y-99857143D01*
X46328571Y-99928571D01*
X46400000Y-100000000D01*
X46471429Y-100142857D01*
X46471429Y-101571428D02*
X46471429Y-101714285D01*
X46400000Y-101857142D01*
X46328571Y-101928571D01*
X46185714Y-102000000D01*
X45900000Y-102071428D01*
X45542857Y-102071428D01*
X45257143Y-102000000D01*
X45114286Y-101928571D01*
X45042857Y-101857142D01*
X44971429Y-101714285D01*
X44971429Y-101571428D01*
X45042857Y-101428571D01*
X45114286Y-101357142D01*
X45257143Y-101285714D01*
X45542857Y-101214285D01*
X45900000Y-101214285D01*
X46185714Y-101285714D01*
X46328571Y-101357142D01*
X46400000Y-101428571D01*
X46471429Y-101571428D01*
X44971429Y-103857142D02*
X45971429Y-103857142D01*
X45828571Y-103857142D02*
X45900000Y-103928570D01*
X45971429Y-104071428D01*
X45971429Y-104285713D01*
X45900000Y-104428570D01*
X45757143Y-104499999D01*
X44971429Y-104499999D01*
X45757143Y-104499999D02*
X45900000Y-104571428D01*
X45971429Y-104714285D01*
X45971429Y-104928570D01*
X45900000Y-105071428D01*
X45757143Y-105142856D01*
X44971429Y-105142856D01*
X44971429Y-105857142D02*
X45971429Y-105857142D01*
X45828571Y-105857142D02*
X45900000Y-105928570D01*
X45971429Y-106071428D01*
X45971429Y-106285713D01*
X45900000Y-106428570D01*
X45757143Y-106499999D01*
X44971429Y-106499999D01*
X45757143Y-106499999D02*
X45900000Y-106571428D01*
X45971429Y-106714285D01*
X45971429Y-106928570D01*
X45900000Y-107071428D01*
X45757143Y-107142856D01*
X44971429Y-107142856D01*
X47000000Y-56000000D02*
X47000000Y-146000000D01*
X70000000Y-56000000D02*
X44300000Y-56000000D01*
X70000000Y-146000000D02*
X44300000Y-146000000D01*
X47000000Y-146000000D02*
X46413579Y-144873496D01*
X47000000Y-146000000D02*
X47586421Y-144873496D01*
X47000000Y-56000000D02*
X46413579Y-57126504D01*
X47000000Y-56000000D02*
X47586421Y-57126504D01*
D12*
X108160000Y-96600000D02*
X113360000Y-96600000D01*
X113360000Y-96600000D02*
X113360000Y-83000000D01*
X113360000Y-83000000D02*
X108160000Y-83000000D01*
X108160000Y-83000000D02*
X108160000Y-96600000D01*
D13*
X96170000Y-124500000D02*
X95170000Y-123500000D01*
X99970000Y-120700000D02*
X98970000Y-119700000D01*
X96270000Y-119700000D02*
X95170000Y-120800000D01*
X99970000Y-123400000D02*
X98870000Y-124500000D01*
X99570000Y-122200000D02*
G75*
G03X99570000Y-122200000I-100000J0D01*
G01*
X95180000Y-124510000D02*
X95180000Y-119710000D01*
X99970000Y-124510000D02*
X99970000Y-119710000D01*
X99970000Y-124500000D02*
X95170000Y-124510000D01*
X99970000Y-119700000D02*
X95170000Y-119700000D01*
D12*
X101233900Y-92174200D02*
X90733900Y-92174200D01*
X101233900Y-102674200D02*
X90733900Y-102674200D01*
X101233900Y-92174200D02*
X101233900Y-102674200D01*
X90733900Y-92174200D02*
X90733900Y-102674200D01*
D13*
X189670000Y-112470000D02*
X189670000Y-87070000D01*
X184590000Y-112470000D02*
X184590000Y-87070000D01*
X189670000Y-87070000D02*
X184590000Y-87070000D01*
X189670000Y-112470000D02*
X184590000Y-112470000D01*
D12*
X167940000Y-92710000D02*
X167940000Y-89110000D01*
X167940000Y-92710000D02*
X169240000Y-92710000D01*
X169240000Y-89110000D02*
X167940000Y-89110000D01*
X169240000Y-89110000D02*
X169240000Y-92710000D01*
X147230000Y-127310000D02*
X143630000Y-127310000D01*
X147230000Y-127310000D02*
X147230000Y-126010000D01*
X143630000Y-126010000D02*
X143630000Y-127310000D01*
X143630000Y-126010000D02*
X147230000Y-126010000D01*
D13*
X172590000Y-155220000D02*
X173190000Y-155220000D01*
X172590000Y-144820000D02*
X172590000Y-155220000D01*
X184990000Y-155220000D02*
X173190000Y-155220000D01*
X184990000Y-144820000D02*
X184990000Y-155220000D01*
X185790000Y-130820000D02*
X185790000Y-144820000D01*
X171790000Y-130820000D02*
X171790000Y-144820000D01*
X171790000Y-144820000D02*
X185790000Y-144820000D01*
X185790000Y-130820000D02*
X171790000Y-130820000D01*
D12*
X153862215Y-112079851D02*
X153862215Y-88979851D01*
X130762215Y-112079851D02*
X130762215Y-88979851D01*
X153862215Y-112079851D02*
X130762215Y-112079851D01*
X153862215Y-88979851D02*
X130762215Y-88979851D01*
X157332364Y-107804350D02*
X160932364Y-107804350D01*
X157332364Y-107804350D02*
X157332364Y-109104350D01*
X160932364Y-109104350D02*
X160932364Y-107804350D01*
X160932364Y-109104350D02*
X157332364Y-109104350D01*
X156354200Y-128426100D02*
X156354200Y-123026100D01*
X148894200Y-128426100D02*
X148894200Y-123026100D01*
X156354200Y-128426100D02*
X148894200Y-128426100D01*
X156354200Y-123026100D02*
X148894200Y-123026100D01*
D13*
X144821421Y-62310000D02*
G75*
G03X144821421Y-62310000I-141421J0D01*
G01*
X143180000Y-74410000D02*
G75*
G03X145580000Y-72010000I0J2400000D01*
G01*
X126380000Y-74410000D02*
G75*
G02X124780000Y-72810000I0J1600000D01*
G01*
X126380000Y-61210000D02*
G75*
G03X124780000Y-62810000I0J-1600000D01*
G01*
X124780000Y-72810000D02*
X124780000Y-62810000D01*
X145580000Y-61210000D02*
X126380000Y-61210000D01*
X145580000Y-72010000D02*
X145580000Y-61210000D01*
X143280000Y-74410000D02*
X126380000Y-74410000D01*
D12*
X146672215Y-115590000D02*
X146672215Y-119190000D01*
X146672215Y-115590000D02*
X145372215Y-115590000D01*
X145372215Y-119190000D02*
X146672215Y-119190000D01*
X145372215Y-119190000D02*
X145372215Y-115590000D01*
X89160000Y-127370000D02*
X80360000Y-127370000D01*
X89160000Y-127370000D02*
X89160000Y-120170000D01*
X80360000Y-120170000D02*
X80360000Y-127370000D01*
X80360000Y-120170000D02*
X89160000Y-120170000D01*
X153435000Y-67260000D02*
X157035000Y-67260000D01*
X153435000Y-67260000D02*
X153435000Y-68560000D01*
X157035000Y-68560000D02*
X157035000Y-67260000D01*
X157035000Y-68560000D02*
X153435000Y-68560000D01*
X153185000Y-66550000D02*
X153185000Y-62950000D01*
X157985000Y-66550000D02*
X153185000Y-66550000D01*
X157985000Y-62950000D02*
X157985000Y-66550000D01*
X153185000Y-62950000D02*
X157985000Y-62950000D01*
X93160000Y-86560000D02*
X93160000Y-82650000D01*
X93160000Y-86560000D02*
X94560000Y-86560000D01*
X94560000Y-82650000D02*
X93160000Y-82650000D01*
X94560000Y-82650000D02*
X94560000Y-86560000D01*
X127252066Y-93930000D02*
X123652066Y-93930000D01*
X127252066Y-93930000D02*
X127252066Y-92630000D01*
X123652066Y-92630000D02*
X123652066Y-93930000D01*
X123652066Y-92630000D02*
X127252066Y-92630000D01*
X170713900Y-92710000D02*
X170713900Y-89110000D01*
X170713900Y-92710000D02*
X172013900Y-92710000D01*
X172013900Y-89110000D02*
X170713900Y-89110000D01*
X172013900Y-89110000D02*
X172013900Y-92710000D01*
X97360000Y-80097000D02*
X93560000Y-80097000D01*
X93560000Y-80097000D02*
X93560000Y-76497000D01*
X93560000Y-76497000D02*
X97360000Y-76497000D01*
X97360000Y-76497000D02*
X97360000Y-80097000D01*
D13*
X88235000Y-68170000D02*
X85135000Y-68170000D01*
X88235000Y-63370000D02*
X85135000Y-63370000D01*
X85135000Y-63370000D02*
X85135000Y-68070000D01*
X103335000Y-63370000D02*
X103335000Y-68070000D01*
X103335000Y-63370000D02*
X103335000Y-68070000D01*
X103335000Y-63370000D02*
X103335000Y-68070000D01*
X103335000Y-63370000D02*
X100235000Y-63370000D01*
X103335000Y-68070000D02*
X100235000Y-68070000D01*
X103335000Y-63370000D02*
X103335000Y-68070000D01*
X88235000Y-72070000D02*
X100235000Y-72070000D01*
X100235000Y-56070000D02*
X88235000Y-56070000D01*
X100235000Y-56070000D02*
X100235000Y-72070000D01*
X88235000Y-56070000D02*
X88235000Y-72070000D01*
D12*
X83817300Y-76566400D02*
X87417300Y-76566400D01*
X83817300Y-76566400D02*
X83817300Y-77866400D01*
X87417300Y-77866400D02*
X87417300Y-76566400D01*
X87417300Y-77866400D02*
X83817300Y-77866400D01*
X127646100Y-114045800D02*
X127646100Y-117645800D01*
X127646100Y-114045800D02*
X126346100Y-114045800D01*
X126346100Y-117645800D02*
X127646100Y-117645800D01*
X126346100Y-117645800D02*
X126346100Y-114045800D01*
X124896100Y-114045800D02*
X124896100Y-117645800D01*
X124896100Y-114045800D02*
X123596100Y-114045800D01*
X123596100Y-117645800D02*
X124896100Y-117645800D01*
X123596100Y-117645800D02*
X123596100Y-114045800D01*
X94240000Y-127030000D02*
X90640000Y-127030000D01*
X94240000Y-127030000D02*
X94240000Y-125730000D01*
X90640000Y-125730000D02*
X90640000Y-127030000D01*
X90640000Y-125730000D02*
X94240000Y-125730000D01*
X92740000Y-125390000D02*
X92740000Y-121790000D01*
X92740000Y-125390000D02*
X94040000Y-125390000D01*
X94040000Y-121790000D02*
X92740000Y-121790000D01*
X94040000Y-121790000D02*
X94040000Y-125390000D01*
X121724200Y-137746100D02*
X118124200Y-137746100D01*
X121724200Y-137746100D02*
X121724200Y-136446100D01*
X118124200Y-136446100D02*
X118124200Y-137746100D01*
X118124200Y-136446100D02*
X121724200Y-136446100D01*
X121724200Y-135046100D02*
X118124200Y-135046100D01*
X121724200Y-135046100D02*
X121724200Y-133746100D01*
X118124200Y-133746100D02*
X118124200Y-135046100D01*
X118124200Y-133746100D02*
X121724200Y-133746100D01*
X105160000Y-117980000D02*
X105160000Y-114380000D01*
X105160000Y-117980000D02*
X106460000Y-117980000D01*
X106460000Y-114380000D02*
X105160000Y-114380000D01*
X106460000Y-114380000D02*
X106460000Y-117980000D01*
X94240000Y-130710000D02*
X90640000Y-130710000D01*
X94240000Y-130710000D02*
X94240000Y-129410000D01*
X90640000Y-129410000D02*
X90640000Y-130710000D01*
X90640000Y-129410000D02*
X94240000Y-129410000D01*
X85610000Y-119500000D02*
X82010000Y-119500000D01*
X85610000Y-119500000D02*
X85610000Y-118200000D01*
X82010000Y-118200000D02*
X82010000Y-119500000D01*
X82010000Y-118200000D02*
X85610000Y-118200000D01*
X157372364Y-92125402D02*
X160972364Y-92125402D01*
X157372364Y-92125402D02*
X157372364Y-93425402D01*
X160972364Y-93425402D02*
X160972364Y-92125402D01*
X160972364Y-93425402D02*
X157372364Y-93425402D01*
X148179574Y-115590000D02*
X148179574Y-119190000D01*
X148179574Y-115590000D02*
X146879574Y-115590000D01*
X146879574Y-119190000D02*
X148179574Y-119190000D01*
X146879574Y-119190000D02*
X146879574Y-115590000D01*
X157332364Y-109331701D02*
X160932364Y-109331701D01*
X157332364Y-109331701D02*
X157332364Y-110631701D01*
X160932364Y-110631701D02*
X160932364Y-109331701D01*
X160932364Y-110631701D02*
X157332364Y-110631701D01*
X143939066Y-85469702D02*
X143939066Y-81869702D01*
X143939066Y-85469702D02*
X145239066Y-85469702D01*
X145239066Y-81869702D02*
X143939066Y-81869702D01*
X145239066Y-81869702D02*
X145239066Y-85469702D01*
X127252066Y-100920000D02*
X123652066Y-100920000D01*
X127252066Y-100920000D02*
X127252066Y-99620000D01*
X123652066Y-99620000D02*
X123652066Y-100920000D01*
X123652066Y-99620000D02*
X127252066Y-99620000D01*
X142454142Y-85469702D02*
X142454142Y-81869702D01*
X142454142Y-85469702D02*
X143754142Y-85469702D01*
X143754142Y-81869702D02*
X142454142Y-81869702D01*
X143754142Y-81869702D02*
X143754142Y-85469702D01*
X142930000Y-115570000D02*
X142930000Y-119170000D01*
X142930000Y-115570000D02*
X141630000Y-115570000D01*
X141630000Y-119170000D02*
X142930000Y-119170000D01*
X141630000Y-119170000D02*
X141630000Y-115570000D01*
X127252066Y-104770000D02*
X123652066Y-104770000D01*
X127252066Y-104770000D02*
X127252066Y-103470000D01*
X123652066Y-103470000D02*
X123652066Y-104770000D01*
X123652066Y-103470000D02*
X127252066Y-103470000D01*
X147990000Y-70580000D02*
X147990000Y-74180000D01*
X147990000Y-70580000D02*
X146690000Y-70580000D01*
X146690000Y-74180000D02*
X147990000Y-74180000D01*
X146690000Y-74180000D02*
X146690000Y-70580000D01*
X137990000Y-115570000D02*
X137990000Y-119170000D01*
X137990000Y-115570000D02*
X136690000Y-115570000D01*
X136690000Y-119170000D02*
X137990000Y-119170000D01*
X136690000Y-119170000D02*
X136690000Y-115570000D01*
X140280000Y-115570000D02*
X140280000Y-119170000D01*
X140280000Y-115570000D02*
X138980000Y-115570000D01*
X138980000Y-119170000D02*
X140280000Y-119170000D01*
X138980000Y-119170000D02*
X138980000Y-115570000D01*
X127260000Y-95670000D02*
X123660000Y-95670000D01*
X127260000Y-95670000D02*
X127260000Y-94370000D01*
X123660000Y-94370000D02*
X123660000Y-95670000D01*
X123660000Y-94370000D02*
X127260000Y-94370000D01*
X127260000Y-97590000D02*
X123660000Y-97590000D01*
X127260000Y-97590000D02*
X127260000Y-96290000D01*
X123660000Y-96290000D02*
X123660000Y-97590000D01*
X123660000Y-96290000D02*
X127260000Y-96290000D01*
X147920077Y-85469702D02*
X147920077Y-81869702D01*
X147920077Y-85469702D02*
X149220077Y-85469702D01*
X149220077Y-81869702D02*
X147920077Y-81869702D01*
X149220077Y-81869702D02*
X149220077Y-85469702D01*
X137412215Y-85470000D02*
X137412215Y-81870000D01*
X137412215Y-85470000D02*
X138712215Y-85470000D01*
X138712215Y-81870000D02*
X137412215Y-81870000D01*
X138712215Y-81870000D02*
X138712215Y-85470000D01*
X134420000Y-85469702D02*
X134420000Y-81869702D01*
X134420000Y-85469702D02*
X135720000Y-85469702D01*
X135720000Y-81869702D02*
X134420000Y-81869702D01*
X135720000Y-81869702D02*
X135720000Y-85469702D01*
X157160000Y-99670000D02*
X160760000Y-99670000D01*
X157160000Y-99670000D02*
X157160000Y-100970000D01*
X160760000Y-100970000D02*
X160760000Y-99670000D01*
X160760000Y-100970000D02*
X157160000Y-100970000D01*
X157372364Y-94077017D02*
X160972364Y-94077017D01*
X157372364Y-94077017D02*
X157372364Y-95377017D01*
X160972364Y-95377017D02*
X160972364Y-94077017D01*
X160972364Y-95377017D02*
X157372364Y-95377017D01*
X108310000Y-101850000D02*
X108310000Y-105450000D01*
X108310000Y-101850000D02*
X107010000Y-101850000D01*
X107010000Y-105450000D02*
X108310000Y-105450000D01*
X107010000Y-105450000D02*
X107010000Y-101850000D01*
X83810000Y-74870000D02*
X87410000Y-74870000D01*
X83810000Y-74870000D02*
X83810000Y-76170000D01*
X87410000Y-76170000D02*
X87410000Y-74870000D01*
X87410000Y-76170000D02*
X83810000Y-76170000D01*
X113760000Y-93450000D02*
X117360000Y-93450000D01*
X113760000Y-93450000D02*
X113760000Y-94750000D01*
X117360000Y-94750000D02*
X117360000Y-93450000D01*
X117360000Y-94750000D02*
X113760000Y-94750000D01*
X113760000Y-84950000D02*
X117360000Y-84950000D01*
X113760000Y-84950000D02*
X113760000Y-86250000D01*
X117360000Y-86250000D02*
X117360000Y-84950000D01*
X117360000Y-86250000D02*
X113760000Y-86250000D01*
X104106100Y-78080800D02*
X104106100Y-74480800D01*
X104106100Y-78080800D02*
X105406100Y-78080800D01*
X105406100Y-74480800D02*
X104106100Y-74480800D01*
X105406100Y-74480800D02*
X105406100Y-78080800D01*
X167650000Y-71790000D02*
X171250000Y-71790000D01*
X167650000Y-71790000D02*
X167650000Y-73090000D01*
X171250000Y-73090000D02*
X171250000Y-71790000D01*
X171250000Y-73090000D02*
X167650000Y-73090000D01*
X175690000Y-96020000D02*
X175690000Y-99620000D01*
X175690000Y-96020000D02*
X174390000Y-96020000D01*
X174390000Y-99620000D02*
X175690000Y-99620000D01*
X174390000Y-99620000D02*
X174390000Y-96020000D01*
X157860000Y-127220000D02*
X157860000Y-123620000D01*
X157860000Y-127220000D02*
X159160000Y-127220000D01*
X159160000Y-123620000D02*
X157860000Y-123620000D01*
X159160000Y-123620000D02*
X159160000Y-127220000D01*
X158980000Y-128240000D02*
X158980000Y-131840000D01*
X158980000Y-128240000D02*
X157680000Y-128240000D01*
X157680000Y-131840000D02*
X158980000Y-131840000D01*
X157680000Y-131840000D02*
X157680000Y-128240000D01*
D13*
X116300000Y-62140000D02*
X117300000Y-62150000D01*
X116300000Y-59840000D02*
X117300000Y-59850000D01*
X116300000Y-59850000D02*
X116300000Y-62150000D01*
X117300000Y-59850000D02*
X117300000Y-62150000D01*
X119300000Y-62140000D02*
X120300000Y-62150000D01*
X119300000Y-59840000D02*
X120300000Y-59850000D01*
X119300000Y-59850000D02*
X119300000Y-62150000D01*
X120300000Y-59850000D02*
X120300000Y-62150000D01*
X176590000Y-46780000D02*
X175990000Y-46780000D01*
X176590000Y-57180000D02*
X176590000Y-46780000D01*
X164190000Y-46780000D02*
X175990000Y-46780000D01*
X164190000Y-57180000D02*
X164190000Y-46780000D01*
X163390000Y-71180000D02*
X163390000Y-57180000D01*
X177390000Y-71180000D02*
X177390000Y-57180000D01*
X177390000Y-57180000D02*
X163390000Y-57180000D01*
X163390000Y-71180000D02*
X177390000Y-71180000D01*
X140450000Y-155220000D02*
X141050000Y-155220000D01*
X140450000Y-144820000D02*
X140450000Y-155220000D01*
X152850000Y-155220000D02*
X141050000Y-155220000D01*
X152850000Y-144820000D02*
X152850000Y-155220000D01*
X153650000Y-130820000D02*
X153650000Y-144820000D01*
X139650000Y-130820000D02*
X139650000Y-144820000D01*
X139650000Y-144820000D02*
X153650000Y-144820000D01*
X153650000Y-130820000D02*
X139650000Y-130820000D01*
D12*
X129860000Y-119970000D02*
X125950000Y-119970000D01*
X129860000Y-119970000D02*
X129860000Y-118570000D01*
X125950000Y-118570000D02*
X125950000Y-119970000D01*
X125950000Y-118570000D02*
X129860000Y-118570000D01*
X95380000Y-127000000D02*
X99290000Y-127000000D01*
X95380000Y-127000000D02*
X95380000Y-128400000D01*
X99290000Y-128400000D02*
X99290000Y-127000000D01*
X99290000Y-128400000D02*
X95380000Y-128400000D01*
X125940000Y-120780000D02*
X129850000Y-120780000D01*
X125940000Y-120780000D02*
X125940000Y-122180000D01*
X129850000Y-122180000D02*
X129850000Y-120780000D01*
X129850000Y-122180000D02*
X125940000Y-122180000D01*
X115280000Y-140430000D02*
X115280000Y-136520000D01*
X115280000Y-140430000D02*
X116680000Y-140430000D01*
X116680000Y-136520000D02*
X115280000Y-136520000D01*
X116680000Y-136520000D02*
X116680000Y-140430000D01*
X99300000Y-131200000D02*
X95390000Y-131200000D01*
X99300000Y-131200000D02*
X99300000Y-129800000D01*
X95390000Y-129800000D02*
X95390000Y-131200000D01*
X95390000Y-129800000D02*
X99300000Y-129800000D01*
X113760000Y-136520000D02*
X113760000Y-140430000D01*
X113760000Y-136520000D02*
X112360000Y-136520000D01*
X112360000Y-140430000D02*
X113760000Y-140430000D01*
X112360000Y-140430000D02*
X112360000Y-136520000D01*
X94260000Y-128890000D02*
X90350000Y-128890000D01*
X94260000Y-128890000D02*
X94260000Y-127490000D01*
X90350000Y-127490000D02*
X90350000Y-128890000D01*
X90350000Y-127490000D02*
X94260000Y-127490000D01*
X125585547Y-85629702D02*
X125585547Y-81719702D01*
X125585547Y-85629702D02*
X126985547Y-85629702D01*
X126985547Y-81719702D02*
X125585547Y-81719702D01*
X126985547Y-81719702D02*
X126985547Y-85629702D01*
X116100000Y-67060000D02*
X116100000Y-63150000D01*
X116100000Y-67060000D02*
X117500000Y-67060000D01*
X117500000Y-63150000D02*
X116100000Y-63150000D01*
X117500000Y-63150000D02*
X117500000Y-67060000D01*
X119100000Y-67060000D02*
X119100000Y-63150000D01*
X119100000Y-67060000D02*
X120500000Y-67060000D01*
X120500000Y-63150000D02*
X119100000Y-63150000D01*
X120500000Y-63150000D02*
X120500000Y-67060000D01*
X106630000Y-101840000D02*
X106630000Y-105750000D01*
X106630000Y-101840000D02*
X105230000Y-101840000D01*
X105230000Y-105750000D02*
X106630000Y-105750000D01*
X105230000Y-105750000D02*
X105230000Y-101840000D01*
X96460000Y-86560000D02*
X96460000Y-82650000D01*
X96460000Y-86560000D02*
X97860000Y-86560000D01*
X97860000Y-82650000D02*
X96460000Y-82650000D01*
X97860000Y-82650000D02*
X97860000Y-86560000D01*
X100960000Y-82640000D02*
X100960000Y-86550000D01*
X100960000Y-82640000D02*
X99560000Y-82640000D01*
X99560000Y-86550000D02*
X100960000Y-86550000D01*
X99560000Y-86550000D02*
X99560000Y-82640000D01*
X104046100Y-71290800D02*
X107956100Y-71290800D01*
X104046100Y-71290800D02*
X104046100Y-72690800D01*
X107956100Y-72690800D02*
X107956100Y-71290800D01*
X107956100Y-72690800D02*
X104046100Y-72690800D01*
X113296100Y-72690800D02*
X109386100Y-72690800D01*
X113296100Y-72690800D02*
X113296100Y-71290800D01*
X109386100Y-71290800D02*
X109386100Y-72690800D01*
X109386100Y-71290800D02*
X113296100Y-71290800D01*
X164823900Y-81854200D02*
X164823900Y-77944200D01*
X164823900Y-81854200D02*
X166223900Y-81854200D01*
X166223900Y-77944200D02*
X164823900Y-77944200D01*
X166223900Y-77944200D02*
X166223900Y-81854200D01*
X169383900Y-84654200D02*
X169383900Y-88564200D01*
X169383900Y-84654200D02*
X167983900Y-84654200D01*
X167983900Y-88564200D02*
X169383900Y-88564200D01*
X167983900Y-88564200D02*
X167983900Y-84654200D01*
X170653900Y-88564200D02*
X170653900Y-84654200D01*
X170653900Y-88564200D02*
X172053900Y-88564200D01*
X172053900Y-84654200D02*
X170653900Y-84654200D01*
X172053900Y-84654200D02*
X172053900Y-88564200D01*
X173823900Y-81854200D02*
X173823900Y-77944200D01*
X173823900Y-81854200D02*
X175223900Y-81854200D01*
X175223900Y-77944200D02*
X173823900Y-77944200D01*
X175223900Y-77944200D02*
X175223900Y-81854200D01*
X159490000Y-131940000D02*
X159490000Y-128030000D01*
X159490000Y-131940000D02*
X160890000Y-131940000D01*
X160890000Y-128030000D02*
X159490000Y-128030000D01*
X160890000Y-128030000D02*
X160890000Y-131940000D01*
D13*
X171903900Y-78334200D02*
X171903900Y-74534200D01*
X168103900Y-74534200D02*
X171903900Y-74534200D01*
X171903900Y-78334200D02*
X168103900Y-78334200D01*
X168103900Y-78334200D02*
X168103900Y-74534200D01*
X85060000Y-79610000D02*
X84260000Y-79610000D01*
X85060000Y-81210000D02*
X84260000Y-81210000D01*
X85060000Y-81210000D02*
X85060000Y-79610000D01*
X84260000Y-81210000D02*
X84260000Y-79610000D01*
D12*
X113366100Y-80580800D02*
X113366100Y-75180800D01*
X105906100Y-80580800D02*
X105906100Y-75180800D01*
X113366100Y-80580800D02*
X105906100Y-80580800D01*
X113366100Y-75180800D02*
X105906100Y-75180800D01*
X168145000Y-99400000D02*
X171745000Y-99400000D01*
X168145000Y-95400000D02*
X171745000Y-95400000D01*
X168145000Y-99400000D02*
X168145000Y-95400000D01*
X171745000Y-99400000D02*
X171745000Y-95400000D01*
X167623900Y-81284200D02*
X172423900Y-81284200D01*
X167623900Y-83884200D02*
X167623900Y-81284200D01*
X172423900Y-83884200D02*
X167623900Y-83884200D01*
X172423900Y-81284200D02*
X172423900Y-83884200D01*
X153640000Y-60540000D02*
X157550000Y-60540000D01*
X153640000Y-60540000D02*
X153640000Y-61940000D01*
X157550000Y-61940000D02*
X157550000Y-60540000D01*
X157550000Y-61940000D02*
X153640000Y-61940000D01*
X153370000Y-68670000D02*
X157280000Y-68670000D01*
X153370000Y-68670000D02*
X153370000Y-70070000D01*
X157280000Y-70070000D02*
X157280000Y-68670000D01*
X157280000Y-70070000D02*
X153370000Y-70070000D01*
X193100000Y-136000000D02*
G75*
G03X193100000Y-136000000I-3100000J0D01*
G01*
X83100000Y-136000000D02*
G75*
G03X83100000Y-136000000I-3100000J0D01*
G01*
X193100000Y-66000000D02*
G75*
G03X193100000Y-66000000I-3100000J0D01*
G01*
X83100000Y-66000000D02*
G75*
G03X83100000Y-66000000I-3100000J0D01*
G01*
D13*
X113270000Y-62140000D02*
X114270000Y-62150000D01*
X113270000Y-59840000D02*
X114270000Y-59850000D01*
X113270000Y-59850000D02*
X113270000Y-62150000D01*
X114270000Y-59850000D02*
X114270000Y-62150000D01*
D12*
X113070000Y-67030000D02*
X113070000Y-63120000D01*
X113070000Y-67030000D02*
X114470000Y-67030000D01*
X114470000Y-63120000D02*
X113070000Y-63120000D01*
X114470000Y-63120000D02*
X114470000Y-67030000D01*
X146990000Y-61310000D02*
X150590000Y-61310000D01*
X146990000Y-61310000D02*
X146990000Y-62610000D01*
X150590000Y-62610000D02*
X150590000Y-61310000D01*
X150590000Y-62610000D02*
X146990000Y-62610000D01*
X150910000Y-64500000D02*
X147000000Y-64500000D01*
X150910000Y-64500000D02*
X150910000Y-63100000D01*
X147000000Y-63100000D02*
X147000000Y-64500000D01*
X147000000Y-63100000D02*
X150910000Y-63100000D01*
X165520000Y-122930000D02*
X165520000Y-126530000D01*
X165520000Y-122930000D02*
X164220000Y-122930000D01*
X164220000Y-126530000D02*
X165520000Y-126530000D01*
X164220000Y-126530000D02*
X164220000Y-122930000D01*
X149240000Y-120780000D02*
X152840000Y-120780000D01*
X149240000Y-120780000D02*
X149240000Y-122080000D01*
X152840000Y-122080000D02*
X152840000Y-120780000D01*
X152840000Y-122080000D02*
X149240000Y-122080000D01*
X143360000Y-124470000D02*
X143360000Y-120560000D01*
X143360000Y-124470000D02*
X144760000Y-124470000D01*
X144760000Y-120560000D02*
X143360000Y-120560000D01*
X144760000Y-120560000D02*
X144760000Y-124470000D01*
X148270000Y-120570000D02*
X148270000Y-124480000D01*
X148270000Y-120570000D02*
X146870000Y-120570000D01*
X146870000Y-124480000D02*
X148270000Y-124480000D01*
X146870000Y-124480000D02*
X146870000Y-120570000D01*
X161000000Y-132140000D02*
X161000000Y-135540000D01*
X161000000Y-135540000D02*
X157500000Y-135540000D01*
X157500000Y-135540000D02*
X157500000Y-132140000D01*
X157500000Y-132140000D02*
X161000000Y-132140000D01*
X110090000Y-126480000D02*
X104090000Y-126480000D01*
X110090000Y-132480000D02*
X104090000Y-132480000D01*
X110090000Y-126480000D02*
X110090000Y-132480000D01*
X104090000Y-126480000D02*
X104090000Y-132480000D01*
X156950000Y-79350000D02*
X156950000Y-75750000D01*
X156950000Y-79350000D02*
X158250000Y-79350000D01*
X158250000Y-75750000D02*
X156950000Y-75750000D01*
X158250000Y-75750000D02*
X158250000Y-79350000D01*
X160100000Y-79350000D02*
X160100000Y-75750000D01*
X160100000Y-79350000D02*
X161400000Y-79350000D01*
X161400000Y-75750000D02*
X160100000Y-75750000D01*
X161400000Y-75750000D02*
X161400000Y-79350000D01*
X110870000Y-110550000D02*
X107270000Y-110550000D01*
X110870000Y-110550000D02*
X110870000Y-109250000D01*
X107270000Y-109250000D02*
X107270000Y-110550000D01*
X107270000Y-109250000D02*
X110870000Y-109250000D01*
X110870000Y-113920000D02*
X107270000Y-113920000D01*
X110870000Y-113920000D02*
X110870000Y-112620000D01*
X107270000Y-112620000D02*
X107270000Y-113920000D01*
X107270000Y-112620000D02*
X110870000Y-112620000D01*
X120230000Y-97830000D02*
X116630000Y-97830000D01*
X120230000Y-97830000D02*
X120230000Y-96530000D01*
X116630000Y-96530000D02*
X116630000Y-97830000D01*
X116630000Y-96530000D02*
X120230000Y-96530000D01*
X120230000Y-101330000D02*
X116630000Y-101330000D01*
X120230000Y-101330000D02*
X120230000Y-100030000D01*
X116630000Y-100030000D02*
X116630000Y-101330000D01*
X116630000Y-100030000D02*
X120230000Y-100030000D01*
X162860000Y-111200000D02*
X166460000Y-111200000D01*
X162860000Y-111200000D02*
X162860000Y-112500000D01*
X166460000Y-112500000D02*
X166460000Y-111200000D01*
X166460000Y-112500000D02*
X162860000Y-112500000D01*
X162860000Y-116040000D02*
X166460000Y-116040000D01*
X162860000Y-116040000D02*
X162860000Y-117340000D01*
X166460000Y-117340000D02*
X166460000Y-116040000D01*
X166460000Y-117340000D02*
X162860000Y-117340000D01*
X156310000Y-131990000D02*
X156310000Y-135900000D01*
X156310000Y-131990000D02*
X154910000Y-131990000D01*
X154910000Y-135900000D02*
X156310000Y-135900000D01*
X154910000Y-135900000D02*
X154910000Y-131990000D01*
X181880000Y-128000000D02*
X177970000Y-128000000D01*
X181880000Y-128000000D02*
X181880000Y-126600000D01*
X177970000Y-126600000D02*
X177970000Y-128000000D01*
X177970000Y-126600000D02*
X181880000Y-126600000D01*
X177284000Y-123340000D02*
X182084000Y-123340000D01*
X177284000Y-125940000D02*
X177284000Y-123340000D01*
X182084000Y-125940000D02*
X177284000Y-125940000D01*
X182084000Y-123340000D02*
X182084000Y-125940000D01*
D13*
X122270000Y-116300000D02*
X121270000Y-117300000D01*
X118470000Y-112500000D02*
X117470000Y-113500000D01*
X117470000Y-116200000D02*
X118570000Y-117300000D01*
X121170000Y-112500000D02*
X122270000Y-113600000D01*
X120070000Y-113000000D02*
G75*
G03X120070000Y-113000000I-100000J0D01*
G01*
X122280000Y-117290000D02*
X117480000Y-117290000D01*
X122280000Y-112500000D02*
X117480000Y-112500000D01*
X122270000Y-112500000D02*
X122280000Y-117300000D01*
X117470000Y-112500000D02*
X117470000Y-117300000D01*
X120914200Y-131614500D02*
X119914200Y-132614500D01*
X117114200Y-127814500D02*
X116114200Y-128814500D01*
X116114200Y-131514500D02*
X117214200Y-132614500D01*
X119814200Y-127814500D02*
X120914200Y-128914500D01*
X118714200Y-128314500D02*
G75*
G03X118714200Y-128314500I-100000J0D01*
G01*
X120924200Y-132604500D02*
X116124200Y-132604500D01*
X120924200Y-127814500D02*
X116124200Y-127814500D01*
X120914200Y-127814500D02*
X120924200Y-132614500D01*
X116114200Y-127814500D02*
X116114200Y-132614500D01*
D12*
X93870000Y-133960000D02*
X97270000Y-133960000D01*
X97270000Y-133960000D02*
X97270000Y-137460000D01*
X97270000Y-137460000D02*
X93870000Y-137460000D01*
X93870000Y-137460000D02*
X93870000Y-133960000D01*
X97440000Y-139580000D02*
X93530000Y-139580000D01*
X97440000Y-139580000D02*
X97440000Y-138180000D01*
X93530000Y-138180000D02*
X93530000Y-139580000D01*
X93530000Y-138180000D02*
X97440000Y-138180000D01*
X93430000Y-135470000D02*
X89520000Y-135470000D01*
X93430000Y-135470000D02*
X93430000Y-134070000D01*
X89520000Y-134070000D02*
X89520000Y-135470000D01*
X89520000Y-134070000D02*
X93430000Y-134070000D01*
X180290000Y-123160000D02*
X180290000Y-119250000D01*
X180290000Y-123160000D02*
X181690000Y-123160000D01*
X181690000Y-119250000D02*
X180290000Y-119250000D01*
X181690000Y-119250000D02*
X181690000Y-123160000D01*
X178840000Y-119250000D02*
X178840000Y-123160000D01*
X178840000Y-119250000D02*
X177440000Y-119250000D01*
X177440000Y-123160000D02*
X178840000Y-123160000D01*
X177440000Y-123160000D02*
X177440000Y-119250000D01*
X172650000Y-126530000D02*
X172650000Y-130130000D01*
X172650000Y-126530000D02*
X171350000Y-126530000D01*
X171350000Y-130130000D02*
X172650000Y-130130000D01*
X171350000Y-130130000D02*
X171350000Y-126530000D01*
X167700000Y-130440000D02*
X167700000Y-126530000D01*
X167700000Y-130440000D02*
X169100000Y-130440000D01*
X169100000Y-126530000D02*
X167700000Y-126530000D01*
X169100000Y-126530000D02*
X169100000Y-130440000D01*
X170950000Y-126520000D02*
X170950000Y-130430000D01*
X170950000Y-126520000D02*
X169550000Y-126520000D01*
X169550000Y-130430000D02*
X170950000Y-130430000D01*
X169550000Y-130430000D02*
X169550000Y-126520000D01*
M02*
