M48
;DRILL file {KiCad 4.0.6} date 11/10/17 17:18:43
;FORMAT={-:-/ absolute / inch / decimal}
FMAT,2
INCH,TZ
T1C0.012
T2C0.016
T3C0.030
T4C0.050
T5C0.059
T6C0.060
%
G90
G05
M72
T1
X4.1763Y-5.0583
X4.1763Y-5.0976
X4.1763Y-5.137
X4.2157Y-5.0583
X4.2157Y-5.0976
X4.2157Y-5.137
X4.255Y-5.0583
X4.255Y-5.0976
X4.255Y-5.137
X6.6634Y-3.8193
X6.6634Y-3.8508
X6.6949Y-3.8193
X6.6949Y-3.8508
X6.7264Y-3.8193
X6.7264Y-3.8508
T2
X2.8531Y-2.4016
X2.8531Y-2.5984
X2.8531Y-2.7953
X2.8531Y-2.9921
X2.8531Y-3.189
X2.8531Y-3.3858
X2.8531Y-3.5827
X2.8531Y-3.7795
X2.8531Y-3.9764
X2.8531Y-4.1732
X2.8531Y-4.3701
X2.8531Y-4.5669
X2.8531Y-4.7638
X2.8531Y-4.9606
X2.8531Y-5.1575
X2.8531Y-5.3543
X2.8531Y-5.5512
X2.9516Y-5.6496
X2.9713Y-2.3031
X2.9747Y-4.608
X3.011Y-5.1634
X3.0347Y-3.988
X3.0947Y-3.688
X3.1247Y-3.128
X3.1347Y-4.858
X3.1347Y-4.8974
X3.1484Y-2.3031
X3.1484Y-5.6496
X3.1547Y-4.248
X3.224Y-3.3976
X3.2747Y-2.388
X3.337Y-4.6134
X3.3453Y-2.3031
X3.3453Y-5.6496
X3.3647Y-5.218
X3.3961Y-3.7752
X3.4147Y-4.228
X3.4547Y-4.708
X3.4747Y-5.488
X3.4886Y-5.3059
X3.4976Y-3.324
X3.5294Y-3.747
X3.5386Y-2.9378
X3.5421Y-2.3031
X3.5421Y-5.6496
X3.5461Y-3.1283
X3.5626Y-3.5728
X3.5947Y-4.508
X3.6147Y-4.718
X3.6447Y-5.208
X3.6516Y-5.4677
X3.6647Y-5.378
X3.6677Y-3.5783
X3.6747Y-4.778
X3.6903Y-4.0668
X3.739Y-2.3031
X3.739Y-5.6496
X3.7547Y-4.238
X3.7887Y-3.7506
X3.7887Y-4.0668
X3.8454Y-3.8651
X3.8539Y-5.3429
X3.872Y-4.6114
X3.9047Y-4.138
X3.9209Y-3.0886
X3.9358Y-2.3031
X3.9358Y-5.6496
X3.9453Y-2.9134
X3.948Y-3.5429
X3.9622Y-4.3732
X3.9789Y-4.4136
X3.9847Y-5.238
X3.9913Y-3.573
X3.9947Y-5.478
X3.9953Y-4.8291
X4.0147Y-4.548
X4.0248Y-3.7677
X4.0295Y-3.8567
X4.0299Y-4.1299
X4.0492Y-3.6264
X4.0697Y-3.0406
X4.0947Y-3.288
X4.1087Y-3.874
X4.1087Y-3.9154
X4.1302Y-2.7722
X4.1327Y-2.3031
X4.1327Y-5.6496
X4.1447Y-3.498
X4.1453Y-4.9465
X4.1697Y-3.9661
X4.1858Y-5.2346
X4.1996Y-4.3268
X4.1996Y-4.4606
X4.2142Y-4.8654
X4.2247Y-5.518
X4.2319Y-2.7146
X4.2347Y-2.898
X4.2445Y-2.4504
X4.2447Y-4.548
X4.3201Y-5.2583
X4.3295Y-2.3031
X4.3295Y-5.6496
X4.3547Y-3.948
X4.3583Y-2.5894
X4.3647Y-4.558
X4.3831Y-4.8472
X4.3866Y-5.0984
X4.3866Y-5.2528
X4.3874Y-4.4594
X4.3886Y-4.3268
X4.4268Y-5.1539
X4.4378Y-5.2016
X4.4447Y-4.958
X4.4647Y-4.718
X4.4747Y-4.218
X4.4791Y-2.6681
X4.5047Y-5.298
X4.5264Y-2.3031
X4.5264Y-5.6496
X4.5311Y-3.1409
X4.5315Y-3.0925
X4.5335Y-3.0409
X4.5447Y-3.518
X4.5447Y-4.118
X4.5657Y-3.8276
X4.5657Y-3.9638
X4.6047Y-4.788
X4.6201Y-5.4949
X4.6547Y-2.718
X4.6547Y-3.048
X4.6547Y-3.248
X4.7232Y-2.3031
X4.7232Y-4.3307
X4.7232Y-5.6496
X4.7591Y-3.8252
X4.7591Y-3.9634
X4.8047Y-3.478
X4.8247Y-2.808
X4.8347Y-2.408
X4.8447Y-3.678
X4.8447Y-3.738
X4.8447Y-3.818
X4.8447Y-3.948
X4.8447Y-4.098
X4.8524Y-2.6476
X4.8528Y-5.398
X4.9147Y-3.128
X4.9201Y-2.3031
X4.9201Y-5.6496
X4.9547Y-4.998
X4.9719Y-3.3958
X4.9764Y-3.6098
X4.9765Y-3.985
X4.9765Y-4.059
X4.9998Y-4.4628
X5.0035Y-4.2268
X5.0047Y-3.008
X5.0247Y-5.518
X5.0303Y-3.874
X5.0303Y-3.9154
X5.0447Y-5.328
X5.0598Y-3.5374
X5.1169Y-2.3031
X5.1169Y-5.6496
X5.1447Y-3.188
X5.1547Y-4.508
X5.1994Y-4.4136
X5.2008Y-4.3732
X5.2547Y-4.848
X5.2649Y-3.3315
X5.3047Y-2.988
X5.3138Y-2.3031
X5.3138Y-5.6496
X5.3147Y-3.208
X5.3185Y-3.9283
X5.3362Y-4.5835
X5.3547Y-4.658
X5.3547Y-5.048
X5.3547Y-5.548
X5.4085Y-3.7639
X5.4085Y-4.1537
X5.4147Y-4.488
X5.4347Y-3.208
X5.4787Y-3.3315
X5.4947Y-4.708
X5.5106Y-2.3031
X5.6324Y-4.4753
X5.6324Y-4.865
X5.6324Y-4.2478
X5.6347Y-2.978
X5.6347Y-3.208
X5.6521Y-3.6678
X5.6947Y-3.208
X5.7075Y-2.3031
X5.7075Y-5.6496
X5.7114Y-4.4406
X5.7374Y-3.3315
X5.7505Y-4.4741
X5.7505Y-4.7783
X5.7547Y-3.148
X5.7983Y-4.1537
X5.8047Y-4.718
X5.8095Y-3.3315
X5.8217Y-4.4921
X5.8236Y-4.9283
X5.8547Y-3.208
X5.8647Y-2.668
X5.8699Y-4.4636
X5.8807Y-4.5157
X5.887Y-2.8122
X5.887Y-4.5839
X5.8927Y-3.9479
X5.893Y-3.7706
X5.9039Y-4.0071
X5.9043Y-2.3031
X5.9043Y-4.0409
X5.9161Y-4.4409
X5.9161Y-4.4749
X5.9473Y-3.4822
X5.9647Y-2.948
X5.9728Y-2.5587
X5.9961Y-2.7311
X6.0012Y-2.411
X6.0547Y-3.248
X6.0547Y-4.648
X6.1012Y-2.3031
X6.1012Y-5.6496
X6.1247Y-3.518
X6.1347Y-4.328
X6.1447Y-4.098
X6.1447Y-5.138
X6.2043Y-3.1457
X6.2047Y-2.9563
X6.2102Y-2.8571
X6.2209Y-3.9185
X6.2264Y-4.3882
X6.2292Y-3.5843
X6.2551Y-2.5492
X6.2559Y-2.5866
X6.2847Y-5.448
X6.2947Y-4.768
X6.298Y-2.3031
X6.298Y-5.6496
X6.3047Y-2.398
X6.3217Y-4.9748
X6.3287Y-2.9563
X6.3287Y-3.1461
X6.3547Y-3.348
X6.3547Y-3.648
X6.3547Y-3.728
X6.3647Y-4.298
X6.3673Y-3.9496
X6.3878Y-4.4035
X6.3882Y-4.5957
X6.4098Y-4.8732
X6.4947Y-5.158
X6.4949Y-5.6496
X6.5247Y-2.948
X6.5247Y-3.308
X6.5247Y-3.608
X6.5447Y-4.708
X6.5647Y-5.418
X6.5772Y-4.4031
X6.5776Y-4.5937
X6.6071Y-3.7795
X6.6299Y-5.1673
X6.6339Y-3.9339
X6.6465Y-3.7343
X6.6487Y-3.6633
X6.6642Y-3.9567
X6.6917Y-2.3031
X6.6917Y-5.6496
X6.7047Y-4.268
X6.7193Y-3.9567
X6.7353Y-3.6633
X6.7358Y-3.9317
X6.8047Y-4.648
X6.8647Y-3.968
X6.8747Y-5.038
X6.8913Y-3.7602
X6.9547Y-3.538
X6.9547Y-4.948
X6.9647Y-4.088
X7.0347Y-4.308
X7.0854Y-2.3031
X7.0854Y-5.6496
X7.1147Y-3.288
X7.1256Y-4.6803
X7.1447Y-2.948
X7.1524Y-2.5331
X7.1647Y-3.828
X7.2823Y-2.3031
X7.4347Y-4.988
X7.4547Y-3.248
X7.4791Y-2.3031
X7.4791Y-5.6496
X7.5547Y-3.648
X7.5547Y-4.648
X7.6047Y-2.828
X7.6547Y-4.038
X7.676Y-2.3031
X7.676Y-5.6496
X7.6847Y-5.108
X7.7744Y-2.4016
X7.7744Y-2.5984
X7.7744Y-2.7953
X7.7744Y-2.9921
X7.7744Y-3.189
X7.7744Y-3.3858
X7.7744Y-3.5827
X7.7744Y-3.7795
X7.7744Y-3.9764
X7.7744Y-4.1732
X7.7744Y-4.3701
X7.7744Y-4.5669
X7.7744Y-4.7638
X7.7744Y-4.9606
X7.7744Y-5.1575
X7.7744Y-5.3543
X7.7744Y-5.5512
T3
X5.0213Y-2.5122
X5.0213Y-2.8122
X5.6213Y-2.5122
X5.6213Y-2.8122
X7.3173Y-3.4768
X7.3173Y-3.5768
X7.3173Y-3.6768
X7.3173Y-3.7768
X7.3173Y-3.8768
X7.3173Y-3.9768
X7.3173Y-4.0768
X7.3173Y-4.1768
X7.3173Y-4.2768
X7.3173Y-4.3768
X7.4173Y-3.4768
X7.4173Y-3.5768
X7.4173Y-3.6768
X7.4173Y-3.7768
X7.4173Y-3.8768
X7.4173Y-3.9768
X7.4173Y-4.0768
X7.4173Y-4.1768
X7.4173Y-4.2768
X7.4173Y-4.3768
T4
X5.7736Y-5.426
X6.7083Y-2.5268
X7.039Y-5.426
T5
X3.6018Y-2.5626
X3.8183Y-2.5626
T6
X5.5736Y-5.226
X5.5736Y-5.626
X5.9736Y-5.226
X5.9736Y-5.626
X6.5083Y-2.3268
X6.5083Y-2.7268
X6.839Y-5.226
X6.839Y-5.626
X6.9083Y-2.3268
X6.9083Y-2.7268
X7.239Y-5.226
X7.239Y-5.626
T0
M30
