G04 #@! TF.FileFunction,Other,Fab,Bot*
%FSLAX46Y46*%
G04 Gerber Fmt 4.6, Leading zero omitted, Abs format (unit mm)*
G04 Created by KiCad (PCBNEW 4.0.6) date 11/10/17 17:18:38*
%MOMM*%
%LPD*%
G01*
G04 APERTURE LIST*
%ADD10C,0.100000*%
%ADD11C,0.150000*%
G04 APERTURE END LIST*
D10*
D11*
X137612801Y-64880000D02*
G75*
G03X137612801Y-64880000I-72801J0D01*
G01*
X138260000Y-63630000D02*
X138260000Y-70630000D01*
X133260000Y-63630000D02*
X138260000Y-63630000D01*
X133260000Y-70630000D02*
X138260000Y-70630000D01*
X133260000Y-63630000D02*
X133260000Y-70630000D01*
D10*
X138649369Y-103664847D02*
X139215054Y-104230532D01*
X139780740Y-102533476D02*
X138649369Y-103664847D01*
X140346425Y-103099161D02*
X139780740Y-102533476D01*
X139215054Y-104230532D02*
X140346425Y-103099161D01*
X145296173Y-104089111D02*
X145861858Y-103523426D01*
X144164802Y-102957740D02*
X145296173Y-104089111D01*
X144730487Y-102392055D02*
X144164802Y-102957740D01*
X145861858Y-103523426D02*
X144730487Y-102392055D01*
X139356475Y-97018043D02*
X138790790Y-97583728D01*
X140487846Y-98149414D02*
X139356475Y-97018043D01*
X139922161Y-98715099D02*
X140487846Y-98149414D01*
X138790790Y-97583728D02*
X139922161Y-98715099D01*
X96630000Y-87600000D02*
X95830000Y-87600000D01*
X96630000Y-89200000D02*
X96630000Y-87600000D01*
X95830000Y-89200000D02*
X96630000Y-89200000D01*
X95830000Y-87600000D02*
X95830000Y-89200000D01*
D11*
X135305714Y-65166190D02*
X135305714Y-65547142D01*
X134972381Y-65309047D02*
X135829524Y-65309047D01*
X135924762Y-65356666D01*
X135972381Y-65451904D01*
X135972381Y-65547142D01*
X135972381Y-65785238D02*
X135305714Y-66309048D01*
X135305714Y-65785238D02*
X135972381Y-66309048D01*
X135972381Y-67213810D02*
X135972381Y-66642381D01*
X135972381Y-66928095D02*
X134972381Y-66928095D01*
X135115238Y-66832857D01*
X135210476Y-66737619D01*
X135258095Y-66642381D01*
X134972381Y-67547143D02*
X134972381Y-68213810D01*
X135972381Y-67785238D01*
X134972381Y-69023334D02*
X134972381Y-68832857D01*
X135020000Y-68737619D01*
X135067619Y-68690000D01*
X135210476Y-68594762D01*
X135400952Y-68547143D01*
X135781905Y-68547143D01*
X135877143Y-68594762D01*
X135924762Y-68642381D01*
X135972381Y-68737619D01*
X135972381Y-68928096D01*
X135924762Y-69023334D01*
X135877143Y-69070953D01*
X135781905Y-69118572D01*
X135543810Y-69118572D01*
X135448571Y-69070953D01*
X135400952Y-69023334D01*
X135353333Y-68928096D01*
X135353333Y-68737619D01*
X135400952Y-68642381D01*
X135448571Y-68594762D01*
X135543810Y-68547143D01*
X138975984Y-101479550D02*
X139447389Y-101950955D01*
X138874970Y-101041817D02*
X139548405Y-101378535D01*
X139110672Y-101816268D01*
X139009657Y-102254001D02*
X139009657Y-102321344D01*
X139077000Y-102321344D01*
X139077000Y-102254001D01*
X139009657Y-102254001D01*
X139077000Y-102321344D01*
X138100520Y-101883611D02*
X137629115Y-102355016D01*
X138639268Y-102759076D01*
X137292397Y-103163138D02*
X137763802Y-103634542D01*
X137595443Y-102860091D02*
X137965833Y-103230481D01*
X137999505Y-103331496D01*
X137965833Y-103432511D01*
X137864817Y-103533527D01*
X137763802Y-103567199D01*
X137696459Y-103567199D01*
X141088887Y-104063857D02*
X141156230Y-104063857D01*
X141290917Y-103996513D01*
X141358261Y-103929170D01*
X141425605Y-103794482D01*
X141425605Y-103659795D01*
X141391933Y-103558780D01*
X141290918Y-103390422D01*
X141189902Y-103289406D01*
X141021543Y-103188391D01*
X140920528Y-103154719D01*
X140785841Y-103154719D01*
X140651154Y-103222063D01*
X140583810Y-103289406D01*
X140516467Y-103424093D01*
X140516467Y-103491437D01*
X140247093Y-103760811D02*
X140179750Y-103760811D01*
X140078735Y-103794482D01*
X139910375Y-103962842D01*
X139876704Y-104063857D01*
X139876704Y-104131200D01*
X139910375Y-104232215D01*
X139977719Y-104299559D01*
X140112406Y-104366902D01*
X140920528Y-104366902D01*
X140482795Y-104804635D01*
X139337956Y-104535261D02*
X139270612Y-104602605D01*
X139236940Y-104703620D01*
X139236940Y-104770963D01*
X139270612Y-104871979D01*
X139371627Y-105040337D01*
X139539986Y-105208697D01*
X139708345Y-105309712D01*
X139809360Y-105343383D01*
X139876704Y-105343383D01*
X139977719Y-105309712D01*
X140045063Y-105242368D01*
X140078735Y-105141352D01*
X140078735Y-105074009D01*
X140045063Y-104972994D01*
X139944048Y-104804635D01*
X139775688Y-104636276D01*
X139607330Y-104535261D01*
X139506315Y-104501589D01*
X139438971Y-104501589D01*
X139337956Y-104535261D01*
X144794464Y-104839990D02*
X144323059Y-105311395D01*
X145232197Y-104738976D02*
X144895479Y-105412411D01*
X144457746Y-104974678D01*
X144020013Y-104873663D02*
X143952670Y-104873663D01*
X143952670Y-104941006D01*
X144020013Y-104941006D01*
X144020013Y-104873663D01*
X143952670Y-104941006D01*
X144390403Y-103964526D02*
X143918998Y-103493121D01*
X143514938Y-104503274D01*
X143110876Y-103156403D02*
X142639472Y-103627808D01*
X143413923Y-103459449D02*
X143043533Y-103829839D01*
X142942518Y-103863511D01*
X142841503Y-103829839D01*
X142740487Y-103728823D01*
X142706815Y-103627808D01*
X142706815Y-103560465D01*
X146099243Y-103063807D02*
X146099243Y-103131150D01*
X146166587Y-103265837D01*
X146233930Y-103333181D01*
X146368618Y-103400525D01*
X146503305Y-103400525D01*
X146604320Y-103366853D01*
X146772678Y-103265838D01*
X146873694Y-103164822D01*
X146974709Y-102996463D01*
X147008381Y-102895448D01*
X147008381Y-102760761D01*
X146941037Y-102626074D01*
X146873694Y-102558730D01*
X146739007Y-102491387D01*
X146671663Y-102491387D01*
X146402289Y-102222013D02*
X146402289Y-102154670D01*
X146368618Y-102053655D01*
X146200258Y-101885295D01*
X146099243Y-101851624D01*
X146031900Y-101851624D01*
X145930885Y-101885295D01*
X145863541Y-101952639D01*
X145796198Y-102087326D01*
X145796198Y-102895448D01*
X145358465Y-102457715D01*
X144685030Y-101784280D02*
X145089091Y-102188341D01*
X144887061Y-101986311D02*
X145594168Y-101279204D01*
X145560496Y-101447563D01*
X145560496Y-101582250D01*
X145594168Y-101683265D01*
X142282550Y-97614033D02*
X142215206Y-97546689D01*
X142114191Y-97513017D01*
X142046847Y-97513017D01*
X141945832Y-97546689D01*
X141777474Y-97647704D01*
X141609114Y-97816063D01*
X141508099Y-97984422D01*
X141474428Y-98085437D01*
X141474428Y-98152780D01*
X141508099Y-98253796D01*
X141575443Y-98321140D01*
X141676459Y-98354811D01*
X141743802Y-98354811D01*
X141844817Y-98321140D01*
X142013176Y-98220125D01*
X142181535Y-98051765D01*
X142282550Y-97883407D01*
X142316222Y-97782392D01*
X142316222Y-97715048D01*
X142282550Y-97614033D01*
X141104039Y-97715048D02*
X141036695Y-97715048D01*
X141036695Y-97782392D01*
X141104039Y-97782392D01*
X141104039Y-97715048D01*
X141036695Y-97782392D01*
X140868337Y-96671223D02*
X140396932Y-97142628D01*
X141306070Y-96570209D02*
X140969352Y-97243644D01*
X140531619Y-96805911D01*
X140800993Y-96132476D02*
X140329588Y-95661071D01*
X139925528Y-96671224D01*
X139521466Y-95324353D02*
X139050062Y-95795758D01*
X139824513Y-95627399D02*
X139454123Y-95997789D01*
X139353108Y-96031461D01*
X139252093Y-95997789D01*
X139151077Y-95896773D01*
X139117405Y-95795758D01*
X139117405Y-95728415D01*
X138957465Y-99457561D02*
X138957465Y-99524904D01*
X139024809Y-99659591D01*
X139092152Y-99726935D01*
X139226840Y-99794279D01*
X139361527Y-99794279D01*
X139462542Y-99760607D01*
X139630900Y-99659592D01*
X139731916Y-99558576D01*
X139832931Y-99390217D01*
X139866603Y-99289202D01*
X139866603Y-99154515D01*
X139799259Y-99019828D01*
X139731916Y-98952484D01*
X139597229Y-98885141D01*
X139529885Y-98885141D01*
X139260511Y-98615767D02*
X139260511Y-98548424D01*
X139226840Y-98447409D01*
X139058480Y-98279049D01*
X138957465Y-98245378D01*
X138890122Y-98245378D01*
X138789107Y-98279049D01*
X138721763Y-98346393D01*
X138654420Y-98481080D01*
X138654420Y-99289202D01*
X138216687Y-98851469D01*
X138587076Y-97942332D02*
X138587076Y-97874989D01*
X138553405Y-97773973D01*
X138385045Y-97605614D01*
X138284030Y-97571942D01*
X138216687Y-97571942D01*
X138115672Y-97605614D01*
X138048328Y-97672958D01*
X137980985Y-97807644D01*
X137980985Y-98615767D01*
X137543252Y-98178034D01*
X97182381Y-87138095D02*
X97182381Y-87757143D01*
X97563333Y-87423809D01*
X97563333Y-87566667D01*
X97610952Y-87661905D01*
X97658571Y-87709524D01*
X97753810Y-87757143D01*
X97991905Y-87757143D01*
X98087143Y-87709524D01*
X98134762Y-87661905D01*
X98182381Y-87566667D01*
X98182381Y-87280952D01*
X98134762Y-87185714D01*
X98087143Y-87138095D01*
X97182381Y-88090476D02*
X97182381Y-88709524D01*
X97563333Y-88376190D01*
X97563333Y-88519048D01*
X97610952Y-88614286D01*
X97658571Y-88661905D01*
X97753810Y-88709524D01*
X97991905Y-88709524D01*
X98087143Y-88661905D01*
X98134762Y-88614286D01*
X98182381Y-88519048D01*
X98182381Y-88233333D01*
X98134762Y-88138095D01*
X98087143Y-88090476D01*
X97515714Y-89138095D02*
X98182381Y-89138095D01*
X97610952Y-89138095D02*
X97563333Y-89185714D01*
X97515714Y-89280952D01*
X97515714Y-89423810D01*
X97563333Y-89519048D01*
X97658571Y-89566667D01*
X98182381Y-89566667D01*
X95337143Y-87757143D02*
X95384762Y-87709524D01*
X95432381Y-87566667D01*
X95432381Y-87471429D01*
X95384762Y-87328571D01*
X95289524Y-87233333D01*
X95194286Y-87185714D01*
X95003810Y-87138095D01*
X94860952Y-87138095D01*
X94670476Y-87185714D01*
X94575238Y-87233333D01*
X94480000Y-87328571D01*
X94432381Y-87471429D01*
X94432381Y-87566667D01*
X94480000Y-87709524D01*
X94527619Y-87757143D01*
X94432381Y-88090476D02*
X94432381Y-88709524D01*
X94813333Y-88376190D01*
X94813333Y-88519048D01*
X94860952Y-88614286D01*
X94908571Y-88661905D01*
X95003810Y-88709524D01*
X95241905Y-88709524D01*
X95337143Y-88661905D01*
X95384762Y-88614286D01*
X95432381Y-88519048D01*
X95432381Y-88233333D01*
X95384762Y-88138095D01*
X95337143Y-88090476D01*
X94432381Y-89042857D02*
X94432381Y-89709524D01*
X95432381Y-89280952D01*
M02*
