G04 #@! TF.FileFunction,Paste,Top*
%FSLAX46Y46*%
G04 Gerber Fmt 4.6, Leading zero omitted, Abs format (unit mm)*
G04 Created by KiCad (PCBNEW 4.0.6) date 11/10/17 17:18:38*
%MOMM*%
%LPD*%
G01*
G04 APERTURE LIST*
%ADD10C,0.100000*%
%ADD11R,2.000000X6.000000*%
%ADD12R,1.600000X1.700000*%
%ADD13R,0.250000X1.300000*%
%ADD14R,1.300000X0.250000*%
%ADD15R,0.750000X1.200000*%
%ADD16R,1.200000X0.750000*%
%ADD17R,1.450000X0.250000*%
%ADD18R,0.250000X1.450000*%
%ADD19R,1.550000X0.600000*%
%ADD20R,2.200000X1.000000*%
%ADD21R,1.800000X3.400000*%
%ADD22R,1.560000X0.650000*%
%ADD23R,0.900000X1.200000*%
%ADD24R,1.060000X0.650000*%
%ADD25R,0.700000X3.000000*%
%ADD26R,3.400000X6.000000*%
%ADD27R,1.000000X1.000000*%
%ADD28R,1.200000X0.900000*%
%ADD29R,0.760000X1.500000*%
%ADD30R,0.800000X0.700000*%
%ADD31R,0.850000X1.000000*%
%ADD32R,0.250000X0.700000*%
%ADD33R,0.714000X0.498000*%
%ADD34R,1.500000X0.450000*%
%ADD35R,1.143000X0.508000*%
%ADD36R,0.800000X0.900000*%
%ADD37R,0.700000X0.250000*%
%ADD38R,1.035000X1.035000*%
%ADD39R,1.700000X1.600000*%
%ADD40R,0.900000X0.800000*%
G04 APERTURE END LIST*
D10*
D11*
X110760000Y-94300000D03*
X110760000Y-85300000D03*
D12*
X97580000Y-119650000D03*
X97570000Y-124460000D03*
D13*
X98733900Y-93074200D03*
X98233900Y-93074200D03*
X97733900Y-93074200D03*
X97233900Y-93074200D03*
X96733900Y-93074200D03*
X96233900Y-93074200D03*
X95733900Y-93074200D03*
X95233900Y-93074200D03*
X94733900Y-93074200D03*
X94233900Y-93074200D03*
X93733900Y-93074200D03*
X93233900Y-93074200D03*
D14*
X91633900Y-94674200D03*
X91633900Y-95174200D03*
X91633900Y-95674200D03*
X91633900Y-96174200D03*
X91633900Y-96674200D03*
X91633900Y-97174200D03*
X91633900Y-97674200D03*
X91633900Y-98174200D03*
X91633900Y-98674200D03*
X91633900Y-99174200D03*
X91633900Y-99674200D03*
X91633900Y-100174200D03*
D13*
X93233900Y-101774200D03*
X93733900Y-101774200D03*
X94233900Y-101774200D03*
X94733900Y-101774200D03*
X95233900Y-101774200D03*
X95733900Y-101774200D03*
X96233900Y-101774200D03*
X96733900Y-101774200D03*
X97233900Y-101774200D03*
X97733900Y-101774200D03*
X98233900Y-101774200D03*
X98733900Y-101774200D03*
D14*
X100333900Y-100174200D03*
X100333900Y-99674200D03*
X100333900Y-99174200D03*
X100333900Y-98674200D03*
X100333900Y-98174200D03*
X100333900Y-97674200D03*
X100333900Y-97174200D03*
X100333900Y-96674200D03*
X100333900Y-96174200D03*
X100333900Y-95674200D03*
X100333900Y-95174200D03*
X100333900Y-94674200D03*
D15*
X168590000Y-91860000D03*
X168590000Y-89960000D03*
D16*
X146380000Y-126660000D03*
X144480000Y-126660000D03*
D17*
X152862215Y-109279851D03*
X152862215Y-108779851D03*
X152862215Y-108279851D03*
X152862215Y-107779851D03*
X152862215Y-107279851D03*
X152862215Y-106779851D03*
X152862215Y-106279851D03*
X152862215Y-105779851D03*
X152862215Y-105279851D03*
X152862215Y-104779851D03*
X152862215Y-104279851D03*
X152862215Y-103779851D03*
X152862215Y-103279851D03*
X152862215Y-102779851D03*
X152862215Y-102279851D03*
X152862215Y-101779851D03*
X152862215Y-101279851D03*
X152862215Y-100779851D03*
X152862215Y-100279851D03*
X152862215Y-99779851D03*
X152862215Y-99279851D03*
X152862215Y-98779851D03*
X152862215Y-98279851D03*
X152862215Y-97779851D03*
X152862215Y-97279851D03*
X152862215Y-96779851D03*
X152862215Y-96279851D03*
X152862215Y-95779851D03*
X152862215Y-95279851D03*
X152862215Y-94779851D03*
X152862215Y-94279851D03*
X152862215Y-93779851D03*
X152862215Y-93279851D03*
X152862215Y-92779851D03*
X152862215Y-92279851D03*
X152862215Y-91779851D03*
D18*
X151062215Y-89979851D03*
X150562215Y-89979851D03*
X150062215Y-89979851D03*
X149562215Y-89979851D03*
X149062215Y-89979851D03*
X148562215Y-89979851D03*
X148062215Y-89979851D03*
X147562215Y-89979851D03*
X147062215Y-89979851D03*
X146562215Y-89979851D03*
X146062215Y-89979851D03*
X145562215Y-89979851D03*
X145062215Y-89979851D03*
X144562215Y-89979851D03*
X144062215Y-89979851D03*
X143562215Y-89979851D03*
X143062215Y-89979851D03*
X142562215Y-89979851D03*
X142062215Y-89979851D03*
X141562215Y-89979851D03*
X141062215Y-89979851D03*
X140562215Y-89979851D03*
X140062215Y-89979851D03*
X139562215Y-89979851D03*
X139062215Y-89979851D03*
X138562215Y-89979851D03*
X138062215Y-89979851D03*
X137562215Y-89979851D03*
X137062215Y-89979851D03*
X136562215Y-89979851D03*
X136062215Y-89979851D03*
X135562215Y-89979851D03*
X135062215Y-89979851D03*
X134562215Y-89979851D03*
X134062215Y-89979851D03*
X133562215Y-89979851D03*
D17*
X131762215Y-91779851D03*
X131762215Y-92279851D03*
X131762215Y-92779851D03*
X131762215Y-93279851D03*
X131762215Y-93779851D03*
X131762215Y-94279851D03*
X131762215Y-94779851D03*
X131762215Y-95279851D03*
X131762215Y-95779851D03*
X131762215Y-96279851D03*
X131762215Y-96779851D03*
X131762215Y-97279851D03*
X131762215Y-97779851D03*
X131762215Y-98279851D03*
X131762215Y-98779851D03*
X131762215Y-99279851D03*
X131762215Y-99779851D03*
X131762215Y-100279851D03*
X131762215Y-100779851D03*
X131762215Y-101279851D03*
X131762215Y-101779851D03*
X131762215Y-102279851D03*
X131762215Y-102779851D03*
X131762215Y-103279851D03*
X131762215Y-103779851D03*
X131762215Y-104279851D03*
X131762215Y-104779851D03*
X131762215Y-105279851D03*
X131762215Y-105779851D03*
X131762215Y-106279851D03*
X131762215Y-106779851D03*
X131762215Y-107279851D03*
X131762215Y-107779851D03*
X131762215Y-108279851D03*
X131762215Y-108779851D03*
X131762215Y-109279851D03*
D18*
X133562215Y-111079851D03*
X134062215Y-111079851D03*
X134562215Y-111079851D03*
X135062215Y-111079851D03*
X135562215Y-111079851D03*
X136062215Y-111079851D03*
X136562215Y-111079851D03*
X137062215Y-111079851D03*
X137562215Y-111079851D03*
X138062215Y-111079851D03*
X138562215Y-111079851D03*
X139062215Y-111079851D03*
X139562215Y-111079851D03*
X140062215Y-111079851D03*
X140562215Y-111079851D03*
X141062215Y-111079851D03*
X141562215Y-111079851D03*
X142062215Y-111079851D03*
X142562215Y-111079851D03*
X143062215Y-111079851D03*
X143562215Y-111079851D03*
X144062215Y-111079851D03*
X144562215Y-111079851D03*
X145062215Y-111079851D03*
X145562215Y-111079851D03*
X146062215Y-111079851D03*
X146562215Y-111079851D03*
X147062215Y-111079851D03*
X147562215Y-111079851D03*
X148062215Y-111079851D03*
X148562215Y-111079851D03*
X149062215Y-111079851D03*
X149562215Y-111079851D03*
X150062215Y-111079851D03*
X150562215Y-111079851D03*
X151062215Y-111079851D03*
D16*
X158182364Y-108454350D03*
X160082364Y-108454350D03*
D19*
X155324200Y-127631100D03*
X155324200Y-126361100D03*
X155324200Y-125091100D03*
X155324200Y-123821100D03*
X149924200Y-123821100D03*
X149924200Y-125091100D03*
X149924200Y-126361100D03*
X149924200Y-127631100D03*
D15*
X146022215Y-116440000D03*
X146022215Y-118340000D03*
D20*
X87810000Y-121520000D03*
X87810000Y-124520000D03*
D21*
X81510000Y-123770000D03*
D20*
X87810000Y-123020000D03*
X87810000Y-126020000D03*
D16*
X154285000Y-67910000D03*
X156185000Y-67910000D03*
D22*
X154235000Y-63800000D03*
X154235000Y-64750000D03*
X154235000Y-65700000D03*
X156935000Y-65700000D03*
X156935000Y-63800000D03*
X156935000Y-64750000D03*
D23*
X93860000Y-85700000D03*
X93860000Y-83500000D03*
D16*
X126402066Y-93280000D03*
X124502066Y-93280000D03*
D15*
X171363900Y-91860000D03*
X171363900Y-89960000D03*
D24*
X96560000Y-79247000D03*
X96560000Y-78297000D03*
X96560000Y-77347000D03*
X94360000Y-77347000D03*
X94360000Y-79247000D03*
D25*
X96060000Y-72070000D03*
X93585000Y-72070000D03*
X92360000Y-72070000D03*
D26*
X85635000Y-65870000D03*
X102835000Y-65770000D03*
D25*
X94860000Y-72070000D03*
D16*
X84667300Y-77216400D03*
X86567300Y-77216400D03*
D15*
X126996100Y-114895800D03*
X126996100Y-116795800D03*
X124246100Y-114895800D03*
X124246100Y-116795800D03*
D16*
X93390000Y-126380000D03*
X91490000Y-126380000D03*
D15*
X93390000Y-124540000D03*
X93390000Y-122640000D03*
D16*
X120874200Y-137096100D03*
X118974200Y-137096100D03*
X120874200Y-134396100D03*
X118974200Y-134396100D03*
D15*
X105810000Y-117130000D03*
X105810000Y-115230000D03*
D16*
X93390000Y-130060000D03*
X91490000Y-130060000D03*
X84760000Y-118850000D03*
X82860000Y-118850000D03*
X158222364Y-92775402D03*
X160122364Y-92775402D03*
D15*
X147529574Y-116440000D03*
X147529574Y-118340000D03*
D16*
X158182364Y-109981701D03*
X160082364Y-109981701D03*
D15*
X144589066Y-84619702D03*
X144589066Y-82719702D03*
D16*
X126402066Y-100270000D03*
X124502066Y-100270000D03*
D15*
X143104142Y-84619702D03*
X143104142Y-82719702D03*
X142280000Y-116420000D03*
X142280000Y-118320000D03*
D16*
X126402066Y-104120000D03*
X124502066Y-104120000D03*
D15*
X147340000Y-71430000D03*
X147340000Y-73330000D03*
X137340000Y-116420000D03*
X137340000Y-118320000D03*
X139630000Y-116420000D03*
X139630000Y-118320000D03*
D16*
X126410000Y-95020000D03*
X124510000Y-95020000D03*
X126410000Y-96940000D03*
X124510000Y-96940000D03*
D15*
X148570077Y-84619702D03*
X148570077Y-82719702D03*
X138062215Y-84620000D03*
X138062215Y-82720000D03*
X135070000Y-84619702D03*
X135070000Y-82719702D03*
D16*
X158010000Y-100320000D03*
X159910000Y-100320000D03*
X158222364Y-94727017D03*
X160122364Y-94727017D03*
D15*
X107660000Y-102700000D03*
X107660000Y-104600000D03*
D16*
X84660000Y-75520000D03*
X86560000Y-75520000D03*
X114610000Y-94100000D03*
X116510000Y-94100000D03*
X114610000Y-85600000D03*
X116510000Y-85600000D03*
D15*
X104756100Y-77230800D03*
X104756100Y-75330800D03*
D16*
X168500000Y-72440000D03*
X170400000Y-72440000D03*
D15*
X175040000Y-96870000D03*
X175040000Y-98770000D03*
X158510000Y-126370000D03*
X158510000Y-124470000D03*
X158330000Y-129090000D03*
X158330000Y-130990000D03*
D27*
X116800000Y-62150000D03*
X116800000Y-59860000D03*
X119800000Y-62150000D03*
X119800000Y-59860000D03*
D28*
X129000000Y-119270000D03*
X126800000Y-119270000D03*
X96240000Y-127700000D03*
X98440000Y-127700000D03*
X126800000Y-121480000D03*
X129000000Y-121480000D03*
D23*
X115980000Y-139570000D03*
X115980000Y-137370000D03*
D28*
X98440000Y-130500000D03*
X96240000Y-130500000D03*
D23*
X113060000Y-137380000D03*
X113060000Y-139580000D03*
D28*
X93400000Y-128190000D03*
X91200000Y-128190000D03*
D23*
X126285547Y-84769702D03*
X126285547Y-82569702D03*
X116800000Y-66200000D03*
X116800000Y-64000000D03*
X119800000Y-66200000D03*
X119800000Y-64000000D03*
X105930000Y-102700000D03*
X105930000Y-104900000D03*
X97160000Y-85700000D03*
X97160000Y-83500000D03*
X100260000Y-83500000D03*
X100260000Y-85700000D03*
D28*
X104906100Y-71990800D03*
X107106100Y-71990800D03*
X112436100Y-71990800D03*
X110236100Y-71990800D03*
D23*
X165523900Y-80994200D03*
X165523900Y-78794200D03*
X168683900Y-85514200D03*
X168683900Y-87714200D03*
X171353900Y-87704200D03*
X171353900Y-85504200D03*
X174523900Y-80994200D03*
X174523900Y-78794200D03*
X160190000Y-131080000D03*
X160190000Y-128880000D03*
D29*
X168503900Y-74884200D03*
X170023900Y-74884200D03*
X171543900Y-74884200D03*
X171543900Y-77934200D03*
X170023900Y-77934200D03*
X168503900Y-77934200D03*
D30*
X85160000Y-80410000D03*
X84160000Y-80410000D03*
D31*
X84660000Y-81510000D03*
X84660000Y-79310000D03*
D19*
X112336100Y-79785800D03*
X112336100Y-78515800D03*
X112336100Y-77245800D03*
X112336100Y-75975800D03*
X106936100Y-75975800D03*
X106936100Y-77245800D03*
X106936100Y-78515800D03*
X106936100Y-79785800D03*
D32*
X168820000Y-98800000D03*
X169270000Y-98800000D03*
X169720000Y-98800000D03*
X170170000Y-98800000D03*
X170620000Y-98800000D03*
X171070000Y-98800000D03*
X171070000Y-96000000D03*
X170620000Y-96000000D03*
X170170000Y-96000000D03*
X169720000Y-96000000D03*
X169270000Y-96000000D03*
X168820000Y-96000000D03*
D33*
X170540000Y-96985000D03*
X169350000Y-96985000D03*
X170540000Y-97815000D03*
X169350000Y-97815000D03*
D34*
X171353900Y-83234200D03*
X171353900Y-81934200D03*
X168693900Y-82584200D03*
D28*
X154500000Y-61240000D03*
X156700000Y-61240000D03*
X154230000Y-69370000D03*
X156430000Y-69370000D03*
D27*
X113770000Y-62150000D03*
X113770000Y-59860000D03*
D23*
X113770000Y-66170000D03*
X113770000Y-63970000D03*
D16*
X147840000Y-61960000D03*
X149740000Y-61960000D03*
D28*
X150050000Y-63800000D03*
X147850000Y-63800000D03*
D15*
X164870000Y-123780000D03*
X164870000Y-125680000D03*
D16*
X150090000Y-121430000D03*
X151990000Y-121430000D03*
D23*
X144060000Y-123610000D03*
X144060000Y-121410000D03*
X147570000Y-121430000D03*
X147570000Y-123630000D03*
D35*
X167920000Y-125040000D03*
X167920000Y-123770000D03*
X167920000Y-122500000D03*
X167920000Y-121230000D03*
X174270000Y-121230000D03*
X174270000Y-122500000D03*
X174270000Y-123770000D03*
X174270000Y-125040000D03*
D36*
X160200000Y-132840000D03*
X158300000Y-132840000D03*
X159250000Y-134840000D03*
D32*
X108840000Y-127080000D03*
X108340000Y-127080000D03*
X107840000Y-127080000D03*
X107340000Y-127080000D03*
X106840000Y-127080000D03*
X106340000Y-127080000D03*
X105840000Y-127080000D03*
X105340000Y-127080000D03*
D37*
X104690000Y-127730000D03*
X104690000Y-128230000D03*
X104690000Y-128730000D03*
X104690000Y-129230000D03*
X104690000Y-129730000D03*
X104690000Y-130230000D03*
X104690000Y-130730000D03*
X104690000Y-131230000D03*
D32*
X105340000Y-131880000D03*
X105840000Y-131880000D03*
X106340000Y-131880000D03*
X106840000Y-131880000D03*
X107340000Y-131880000D03*
X107840000Y-131880000D03*
X108340000Y-131880000D03*
X108840000Y-131880000D03*
D37*
X109490000Y-131230000D03*
X109490000Y-130730000D03*
X109490000Y-130230000D03*
X109490000Y-129730000D03*
X109490000Y-129230000D03*
X109490000Y-128730000D03*
X109490000Y-128230000D03*
X109490000Y-127730000D03*
D38*
X106227500Y-130342500D03*
X107952500Y-130342500D03*
X106227500Y-128617500D03*
X107952500Y-128617500D03*
D15*
X157600000Y-78500000D03*
X157600000Y-76600000D03*
X160750000Y-78500000D03*
X160750000Y-76600000D03*
D16*
X110020000Y-109900000D03*
X108120000Y-109900000D03*
X110020000Y-113270000D03*
X108120000Y-113270000D03*
X119380000Y-97180000D03*
X117480000Y-97180000D03*
X119380000Y-100680000D03*
X117480000Y-100680000D03*
X163710000Y-111850000D03*
X165610000Y-111850000D03*
X163710000Y-116690000D03*
X165610000Y-116690000D03*
D23*
X155610000Y-132850000D03*
X155610000Y-135050000D03*
D28*
X181020000Y-127300000D03*
X178820000Y-127300000D03*
D34*
X181014000Y-125290000D03*
X181014000Y-123990000D03*
X178354000Y-124640000D03*
D39*
X117420000Y-114890000D03*
X122230000Y-114900000D03*
X116064200Y-130204500D03*
X120874200Y-130214500D03*
D40*
X94570000Y-134760000D03*
X94570000Y-136660000D03*
X96570000Y-135710000D03*
D28*
X96580000Y-138880000D03*
X94380000Y-138880000D03*
X92570000Y-134770000D03*
X90370000Y-134770000D03*
D23*
X180990000Y-122300000D03*
X180990000Y-120100000D03*
X178140000Y-120110000D03*
X178140000Y-122310000D03*
D15*
X172000000Y-127380000D03*
X172000000Y-129280000D03*
D23*
X168400000Y-129580000D03*
X168400000Y-127380000D03*
X170250000Y-127380000D03*
X170250000Y-129580000D03*
M02*
